<svg width="52" height="54" viewBox="0 0 52 54" fill="none" xmlns="http://www.w3.org/2000/svg">
<rect y="0.779297" width="52" height="52.4708" rx="26" fill="#892FC0" fill-opacity="0.4"/>
<path d="M40 16.9243H12C11.4696 16.9243 10.9609 17.1369 10.5858 17.5154C10.2107 17.8939 10 18.4072 10 18.9424V35.0873C10 35.6225 10.2107 36.1358 10.5858 36.5143C10.9609 36.8928 11.4696 37.1054 12 37.1054H40C40.5304 37.1054 41.0391 36.8928 41.4142 36.5143C41.7893 36.1358 42 35.6225 42 35.0873V18.9424C42 18.4072 41.7893 17.8939 41.4142 17.5154C41.0391 17.1369 40.5304 16.9243 40 16.9243ZM40 22.9786C38.9764 22.8949 38.0174 22.44 37.3004 21.698C36.5835 20.956 36.1571 19.9771 36.1 18.9424H40V22.9786ZM40 24.6133V29.487C38.5601 29.5743 37.2024 30.1935 36.1861 31.2264C35.1698 32.2594 34.566 33.6337 34.49 35.0873H17.49C17.4168 33.6352 16.8169 32.2611 15.8045 31.2265C14.7921 30.1919 13.438 29.5692 12 29.4769V24.5931C13.4481 24.5048 14.8125 23.8785 15.8299 22.835C16.8474 21.7915 17.4459 20.4049 17.51 18.9424H34.51C34.5736 20.4016 35.1693 21.7856 36.1826 22.8286C37.196 23.8716 38.5555 24.5 40 24.5931V24.6133ZM15.9 18.9424C15.8429 19.9771 15.4165 20.956 14.6996 21.698C13.9826 22.44 13.0236 22.8949 12 22.9786V18.9424H15.9ZM12 31.1116C13.014 31.1936 13.9652 31.64 14.6808 32.3695C15.3965 33.099 15.8291 34.0633 15.9 35.0873H12V31.1116ZM36.1 35.0873C36.1709 34.0633 36.6035 33.099 37.3192 32.3695C38.0348 31.64 38.986 31.1936 40 31.1116V35.0873H36.1Z" fill="#892FC0"/>
<path d="M26.0002 19.7998C22.5302 19.7998 19.7002 23.0389 19.7002 27.0145C19.7002 30.9902 22.5302 34.2293 26.0002 34.2293C29.4702 34.2293 32.3002 30.9902 32.3002 27.0145C32.3002 23.0389 29.4702 19.7998 26.0002 19.7998ZM26.0002 32.6047C23.4102 32.6047 21.3002 30.0921 21.3002 27.0044C21.3002 23.9167 23.4102 21.4042 26.0002 21.4042C28.5902 21.4042 30.7002 23.9167 30.7002 27.0044C30.7002 30.0921 28.5902 32.6148 26.0002 32.6148V32.6047Z" fill="#892FC0"/>
</svg>
