<svg width="22" height="20" viewBox="0 0 22 20" fill="none" xmlns="http://www.w3.org/2000/svg">
<path d="M8.43189 0.28656C7.31375 0.28656 6.24141 0.730739 5.45077 1.52138C4.66012 2.31202 4.21595 3.38437 4.21595 4.50251C4.21595 5.62064 4.66012 6.69299 5.45077 7.48363C6.24141 8.27427 7.31375 8.71845 8.43189 8.71845C9.55003 8.71845 10.6224 8.27427 11.413 7.48363C12.2037 6.69299 12.6478 5.62064 12.6478 4.50251C12.6478 3.38437 12.2037 2.31202 11.413 1.52138C10.6224 0.730739 9.55003 0.28656 8.43189 0.28656ZM8.43189 2.39453C8.99096 2.39453 9.52713 2.61662 9.92245 3.01194C10.3178 3.40726 10.5399 3.94344 10.5399 4.50251C10.5399 5.06157 10.3178 5.59774 9.92245 5.99307C9.52713 6.38839 8.99096 6.61048 8.43189 6.61048C7.87282 6.61048 7.33665 6.38839 6.94133 5.99307C6.54601 5.59774 6.32392 5.06157 6.32392 4.50251C6.32392 3.94344 6.54601 3.40726 6.94133 3.01194C7.33665 2.61662 7.87282 2.39453 8.43189 2.39453ZM15.8098 8.71845C15.6412 8.71845 15.5568 8.80277 15.5568 8.97141L15.2828 10.2994C15.0509 10.4891 14.7136 10.6578 14.4607 10.8264L13.1116 10.2994C13.0273 10.2994 12.8586 10.2994 12.7743 10.4048L11.7625 12.2598C11.6782 12.3442 11.6782 12.5128 11.8468 12.5971L12.943 13.4614V14.5154L11.8468 15.3796C11.7625 15.464 11.6782 15.6326 11.7625 15.7169L12.7743 17.5719C12.8586 17.6773 13.0273 17.6773 13.1116 17.6773L14.4607 17.1503C14.7136 17.319 15.0509 17.4876 15.2828 17.6773L15.5568 19.0054C15.5568 19.174 15.6412 19.2583 15.8098 19.2583H17.9178C18.0021 19.2583 18.1707 19.174 18.1707 19.0054L18.3394 17.6773C18.6766 17.4876 19.0139 17.319 19.2669 17.1503L20.5527 17.6773C20.7003 17.6773 20.8689 17.6773 20.8689 17.5719L21.9651 15.7169C22.0494 15.6326 21.9651 15.464 21.8808 15.3796L20.7846 14.5154V13.4614L21.8808 12.5971C21.9651 12.5128 22.0494 12.3442 21.9651 12.2598L20.8689 10.4048C20.8689 10.2994 20.7003 10.2994 20.5527 10.2994L19.2669 10.8264C19.0139 10.6578 18.6766 10.4891 18.3394 10.2994L18.1707 8.97141C18.1707 8.80277 18.0021 8.71845 17.9178 8.71845H15.8098ZM8.43189 9.77244C5.61775 9.77244 0 11.1742 0 13.9884V17.1503H10.192C9.89693 16.5285 9.68613 15.8539 9.58074 15.1478H2.00257V13.9884C2.00257 13.3138 5.30155 11.775 8.43189 11.775C8.8851 11.775 9.34886 11.8172 9.80207 11.8804C10.0129 11.2059 10.2974 10.5735 10.6663 9.99377C9.84423 9.85676 9.06428 9.77244 8.43189 9.77244ZM16.9059 12.4074C17.7491 12.4074 18.4448 13.103 18.4448 14.0305C18.4448 14.8737 17.7491 15.5694 16.9059 15.5694C15.9784 15.5694 15.2828 14.8737 15.2828 14.0305C15.2828 13.103 15.9784 12.4074 16.9059 12.4074Z" fill="black"/>
</svg>
